<?xml version="1.0" encoding="UTF-8" standalone="no"?>
<!-- Created with Inkscape (http://www.inkscape.org/) -->

<svg
   width="210mm"
   height="297mm"
   viewBox="0 0 210 297"
   version="1.1"
   id="svg1"
   xml:space="preserve"
   xmlns="http://www.w3.org/2000/svg"
   xmlns:svg="http://www.w3.org/2000/svg"><defs
     id="defs1" /><g
     id="layer1"><path
       style="fill:#000000;stroke-width:1.61286"
       d="m 45.361298,71.342681 c -1.276199,-1.14212 -1.120622,-3.74275 0.465833,-7.78648 C 48.8572,55.83272 56.68394,46.64355 65.50523,40.452604 c 2.269106,-1.592497 2.301443,-1.645572 3.845303,-6.311669 2.352785,-7.110969 3.137388,-9.765452 2.886458,-9.765452 -0.124973,0 -1.355442,1.266636 -2.734238,2.814737 -5.516454,6.193871 -9.665263,10.196129 -10.569503,10.196129 -0.859914,0 -0.904677,-0.130951 -0.728001,-2.12971 0.228068,-2.580159 1.938516,-7.366405 4.048341,-11.328173 0.857063,-1.609405 1.470489,-2.926183 1.363159,-2.926183 -0.107408,0 -2.014775,0.670471 -4.238745,1.489927 -9.132899,3.365133 -18.910683,5.193582 -29.793855,5.571431 -6.007545,0.208569 -8.991782,0.09635 -12.281629,-0.461737 -6.605457,-1.120572 -10.4213621,-3.263195 -9.9453632,-5.584307 0.5252464,-2.561249 2.5167232,-2.536915 2.3174659,0.02825 -0.1075488,1.384017 0.044986,1.640111 1.5815643,2.654988 3.042555,2.009637 6.964839,2.676757 15.682676,2.667378 12.575928,-0.01277 25.047319,-2.475343 36.174375,-7.140747 4.29553,-1.801061 4.901675,-0.709071 1.875373,3.378574 -2.425372,3.275943 -6.157692,11.480228 -5.565921,12.234846 0.348553,0.444469 5.708907,-5.171618 11.035995,-11.562498 2.828054,-3.39282 3.853209,-3.645286 3.535475,-0.870672 -0.09126,0.796928 -3.079629,9.842817 -4.007592,12.131055 -0.324559,0.800367 -0.518603,1.546388 -0.431195,1.657834 0.08741,0.111459 2.845038,-1.431845 6.128074,-3.429566 3.283048,-1.997729 6.015525,-3.572801 6.072169,-3.500151 0.05672,0.07268 -2.818946,2.033769 -6.390244,4.358067 l -6.493256,4.226002 -2.259733,5.411683 c -3.377074,8.08753 -7.05072,14.837929 -10.765918,19.782631 -4.762191,6.3381 -8.584486,8.99831 -10.485167,7.29735 z m 4.06238,-1.25162 c 5.184492,-4.01231 11.603115,-14.189408 16.048344,-25.445455 0.760869,-1.926639 1.290028,-3.622005 1.175921,-3.767527 -0.266681,-0.340069 -4.146249,2.688577 -7.776851,6.071176 -8.283901,7.717985 -15.047713,19.116956 -13.655504,23.013336 0.534513,1.49595 2.368751,1.55196 4.20809,0.1284 z"
       id="path2" /><path
       style="fill:#000000;stroke-width:0.457072"
       d="m 132.43,40.846802 c -1.56496,-0.14644 -2.64689,-0.435 -3.92879,-1.04782 -2.63085,-1.2577 -4.59911,-4.15151 -4.98817,-7.33383 -0.11844,-0.96871 -0.10302,-1.33074 0.1219,-2.8625 0.30394,-2.069983 0.31233,-2.297747 0.0846,-2.297747 -0.26784,0 -5.35278,5.374087 -7.33145,7.748347 -0.36539,0.43843 -0.47526,0.50222 -0.74738,0.43391 -1.04213,-0.26155 -0.93757,-0.81392 0.81833,-4.32319 0.81764,-1.63405 1.35734,-2.847029 1.29467,-2.909696 -0.33415,-0.334156 -8.53806,6.435726 -10.88682,8.983856 -0.81996,0.88952 -1.39671,1.23762 -1.91202,1.154 -1.00395,-0.16291 -1.0452,-0.76928 -0.15817,-2.32461 0.33982,-0.59583 0.6869,-1.16495 0.7713,-1.26473 0.37098,-0.43854 2.03658,-3.22752 2.61001,-4.37033 0.49135,-0.97925 2.90243,-5.211806 3.07907,-5.405226 0.0203,-0.02215 0.25371,-0.0695 0.5187,-0.105032 1.07843,-0.144644 0.91429,0.69766 -0.78648,4.035778 -0.57036,1.11947 -1.24764,2.40762 -1.50506,2.86253 -0.60649,1.07184 -0.6107,1.30922 -0.0145,0.81833 1.35406,-1.11492 6.30755,-4.938555 7.35953,-5.680877 1.12052,-0.790693 1.2723,-0.862389 1.82549,-0.862389 0.8348,0 1.07225,0.272048 1.04082,1.192458 -0.0129,0.3751 -0.16247,1.086084 -0.33257,1.579958 -0.1701,0.49387 -0.30928,0.91564 -0.30928,0.93724 0,0.19275 0.43594,-0.14622 1.54365,-1.20028 2.80557,-2.669711 3.32334,-2.974474 3.96434,-2.333475 0.37616,0.376162 0.38761,1.057663 0.0549,3.270705 -0.12997,0.86468 -0.23756,1.95798 -0.23909,2.42956 -0.007,2.25594 1.35039,5.12747 3.06524,6.48298 1.62532,1.28474 3.3029,1.78391 6.30677,1.8766 3.76332,0.11611 5.99843,-0.22053 17.41201,-2.62261 9.57588,-2.01531 11.51643,-2.39945 15.26497,-3.02184 9.83295,-1.63261 15.64247,-2.36192 25.53805,-3.20597 6.64779,-0.56702 7.51969,-0.55907 8.19449,0.0749 0.35913,0.33738 0.36129,0.79719 0.006,1.32442 -0.46063,0.68397 -1.43979,0.688 -1.99011,0.008 -0.1216,-0.15021 -0.11332,-0.24268 0.043,-0.48126 0.16037,-0.24474 0.16543,-0.31311 0.0295,-0.39919 -0.37304,-0.23638 -6.04815,-0.0418 -11.10841,0.38088 -5.66418,0.4731 -13.24526,1.48279 -20.91459,2.78549 -5.91887,1.00536 -9.60677,1.74294 -18.93305,3.78656 -7.66458,1.67951 -11.65546,2.18593 -14.8618,1.88591 z"
       id="path3" /><path
       style="fill:#000000;stroke-width:0.506087"
       d="m 90.182781,36.770427 c -0.148126,-0.211479 -0.208446,-0.620098 -0.208446,-1.412058 0,-1.004719 -0.03239,-1.146823 -0.328669,-1.443126 -0.309877,-0.309877 -0.415152,-0.328785 -1.841156,-0.330647 -1.58478,-0.002 -2.142478,-0.146644 -2.225339,-0.576904 -0.104983,-0.545121 0.178354,-0.626242 2.187342,-0.626242 2.406293,0 2.348802,0.03902 2.844327,-1.929916 0.418301,-1.66209 0.667001,-1.979356 1.119355,-1.42795 0.229303,0.279523 0.251521,0.427821 0.160443,1.071214 -0.05816,0.41073 -0.106356,1.073512 -0.107166,1.47285 -0.0018,0.692423 0.01719,0.731401 0.400243,0.841014 0.220941,0.06322 0.944006,0.177495 1.606827,0.253954 1.288785,0.148664 1.807682,0.373746 1.807682,0.784117 0,0.335576 -0.343627,0.428923 -1.00426,0.272801 -2.14579,-0.50709 -3.548416,0.392196 -3.548416,2.275042 0,0.357414 -0.03659,0.745152 -0.08127,0.861647 -0.117533,0.306295 -0.539291,0.259993 -0.781489,-0.08579 z"
       id="path1" /></g></svg>
